<svg aria-hidden="true" style="position: absolute; width: 0; height: 0; overflow: hidden;" version="1.1" xmlns="http://www.w3.org/2000/svg" xmlns:xlink="http://www.w3.org/1999/xlink">
<defs>
<symbol id="icon-message-circle" viewBox="0 0 24 24">
<path d="M22 11.497v-0.497c0-0.017-0.001-0.038-0.002-0.058-0.136-2.338-1.113-4.461-2.642-6.051-1.602-1.667-3.814-2.752-6.301-2.889-0.016-0.001-0.036-0.002-0.055-0.002h-0.489c-1.405-0.016-2.882 0.31-4.264 1.008-1.223 0.621-2.291 1.488-3.139 2.535-1.322 1.634-2.107 3.705-2.108 5.946-0.014 1.275 0.253 2.61 0.824 3.877l-1.772 5.317c-0.066 0.196-0.072 0.418 0 0.632 0.175 0.524 0.741 0.807 1.265 0.632l5.314-1.771c1.16 0.527 2.484 0.826 3.876 0.823 1.372-0.009 2.714-0.308 3.941-0.866 1.912-0.871 3.54-2.373 4.541-4.375 0.644-1.249 1.015-2.715 1.011-4.261zM20 11.503c0.003 1.225-0.292 2.375-0.789 3.339-0.801 1.602-2.082 2.785-3.592 3.472-0.97 0.442-2.035 0.679-3.126 0.686-1.221 0.003-2.371-0.292-3.335-0.789-0.249-0.129-0.528-0.142-0.775-0.060l-3.803 1.268 1.268-3.803c0.088-0.263 0.060-0.537-0.056-0.767-0.552-1.094-0.804-2.254-0.792-3.338 0.001-1.789 0.619-3.42 1.663-4.709 0.671-0.829 1.518-1.517 2.49-2.010 1.092-0.552 2.252-0.804 3.336-0.792h0.456c1.962 0.107 3.704 0.961 4.969 2.277 1.202 1.251 1.972 2.916 2.086 4.753z"></path>
</symbol>
<symbol id="icon-user" viewBox="0 0 32 32">
<path d="M31.11 28.336c-0.201-0.133-3.848-2.525-9.273-3.699 1.99-2.521 3.268-5.912 3.811-8.169 0.754-3.128 0.461-9.248-2.543-13.062-1.756-2.229-4.213-3.406-7.105-3.406s-5.349 1.178-7.104 3.406c-3.004 3.813-3.296 9.933-2.543 13.061 0.543 2.257 1.82 5.648 3.811 8.169-5.425 1.174-9.072 3.566-9.272 3.699-0.733 0.488-1.061 1.4-0.805 2.242 0.254 0.845 1.033 1.423 1.913 1.423h28c0.881 0 1.658-0.578 1.914-1.422 0.257-0.842-0.071-1.754-0.804-2.242zM20.267 23.398l-0.326 0.414c-2.385 2.74-5.495 2.74-7.879 0l-0.327-0.414c-2.785-3.529-4.167-8.197-3.572-12.65 0.545-4.279 2.997-8.748 7.837-8.748s7.293 4.47 7.838 8.749c0.593 4.455-0.784 9.118-3.571 12.649zM2 30c0.138-0.092 3.526-2.314 8.586-3.408l2.484-0.537c0.887 0.582 1.86 0.945 2.93 0.945 1.071 0 2.043-0.363 2.93-0.945l2.484 0.537c5.020 1.086 8.396 3.283 8.586 3.408h-28z"></path>
</symbol>
<symbol id="icon-world" viewBox="0 0 32 32">
<path d="M15.5 0c-8.561 0-15.5 6.939-15.5 15.5s6.939 15.5 15.5 15.5 15.5-6.939 15.5-15.5-6.939-15.5-15.5-15.5zM28.975 15h-5.996c-0.055-2.215-0.449-4.331-1.148-6.268 1.35-0.563 2.598-1.312 3.736-2.197 2.023 2.271 3.288 5.22 3.408 8.465zM14.947 28.972c-1.662-1.384-3.056-3.181-4.076-5.268 1.309-0.409 2.696-0.633 4.129-0.679v5.949c-0.018 0-0.035-0.001-0.053-0.002zM16.051 2.028c1.886 1.57 3.425 3.673 4.466 6.126-1.426 0.487-2.941 0.77-4.518 0.82v-6.949c0.019 0.001 0.035 0.002 0.052 0.003zM17.717 2.198c2.76 0.459 5.236 1.748 7.164 3.614-1.047 0.803-2.191 1.483-3.428 1.998-0.91-2.157-2.187-4.064-3.736-5.612zM15 2.025v6.949c-1.577-0.051-3.093-0.333-4.518-0.82 1.041-2.453 2.58-4.556 4.466-6.126 0.018-0.001 0.034-0.002 0.052-0.003zM9.546 7.811c-1.235-0.515-2.38-1.195-3.427-1.998 1.927-1.866 4.404-3.155 7.164-3.614-1.55 1.547-2.826 3.454-3.737 5.612zM10.105 9.076c1.542 0.535 3.185 0.847 4.895 0.899v5.025h-5.979c0.054-2.094 0.425-4.095 1.084-5.924zM15 16v6.025c-1.577 0.048-3.102 0.306-4.539 0.769-0.866-2.062-1.377-4.359-1.44-6.794h5.979zM13.283 28.802c-2.473-0.411-4.719-1.488-6.545-3.052 0.985-0.683 2.050-1.261 3.188-1.7 0.872 1.808 2.013 3.413 3.357 4.752zM16 28.975v-5.949c1.432 0.046 2.82 0.27 4.129 0.679-1.021 2.087-2.414 3.884-4.076 5.268-0.017 0-0.035 0.001-0.053 0.002zM21.074 24.050c1.137 0.439 2.201 1.018 3.188 1.7-1.826 1.563-4.072 2.641-6.545 3.052 1.344-1.339 2.484-2.944 3.357-4.752zM20.539 22.794c-1.438-0.463-2.963-0.721-4.539-0.769v-6.025h5.979c-0.063 2.435-0.575 4.732-1.44 6.794zM16 15v-5.025c1.709-0.052 3.352-0.363 4.895-0.898 0.658 1.829 1.029 3.83 1.084 5.924h-5.979zM5.434 6.535c1.138 0.885 2.386 1.634 3.735 2.197-0.699 1.937-1.093 4.053-1.148 6.268h-5.996c0.12-3.245 1.385-6.194 3.409-8.465zM2.025 16h5.996c0.062 2.555 0.596 4.968 1.503 7.137-1.267 0.494-2.448 1.152-3.538 1.931-2.348-2.337-3.83-5.532-3.961-9.068zM25.014 25.067c-1.090-0.778-2.271-1.437-3.539-1.931 0.908-2.169 1.441-4.582 1.504-7.137h5.996c-0.131 3.537-1.614 6.732-3.961 9.068z"></path>
</symbol>
<symbol id="icon-music" viewBox="0 0 32 32">
<path d="M30 0h2v23c0 2.761-3.134 5-7 5s-7-2.239-7-5c0-2.761 3.134-5 7-5 1.959 0 3.729 0.575 5 1.501v-11.501l-16 3.556v15.444c0 2.761-3.134 5-7 5s-7-2.239-7-5c0-2.761 3.134-5 7-5 1.959 0 3.729 0.575 5 1.501v-19.501l18-4z"></path>
</symbol>
<symbol id="icon-bullhorn" viewBox="0 0 32 32">
<path d="M32 13.414c0-6.279-1.837-11.373-4.109-11.413 0.009-0 0.018-0.001 0.027-0.001h-2.592c0 0-6.088 4.573-14.851 6.367-0.268 1.415-0.438 3.102-0.438 5.047s0.171 3.631 0.438 5.047c8.763 1.794 14.851 6.367 14.851 6.367h2.592c-0.009 0-0.018-0.001-0.027-0.001 2.272-0.040 4.109-5.134 4.109-11.413zM27.026 23.102c-0.293 0-0.61-0.304-0.773-0.486-0.395-0.439-0.775-1.124-1.1-1.979-0.727-1.913-1.127-4.478-1.127-7.223s0.4-5.309 1.127-7.223c0.325-0.855 0.705-1.54 1.1-1.979 0.163-0.182 0.48-0.486 0.773-0.486s0.61 0.304 0.773 0.486c0.395 0.439 0.775 1.124 1.1 1.979 0.727 1.913 1.127 4.479 1.127 7.223s-0.4 5.309-1.127 7.223c-0.325 0.855-0.705 1.54-1.1 1.979-0.163 0.181-0.48 0.486-0.773 0.486zM7.869 13.414c0-1.623 0.119-3.201 0.345-4.659-1.48 0.205-2.779 0.323-4.386 0.323-2.096 0-2.096 0-2.096 0l-1.733 2.959v2.755l1.733 2.959c0 0 0 0 2.096 0 1.606 0 2.905 0.118 4.386 0.323-0.226-1.458-0.345-3.036-0.345-4.659zM11.505 20.068l-4-0.766 2.558 10.048c0.132 0.52 0.648 0.782 1.146 0.583l3.705-1.483c0.498-0.199 0.698-0.749 0.444-1.221l-3.853-7.161zM27.026 17.148c-0.113 0-0.235-0.117-0.298-0.187-0.152-0.169-0.299-0.433-0.424-0.763-0.28-0.738-0.434-1.726-0.434-2.784s0.154-2.046 0.434-2.784c0.125-0.33 0.272-0.593 0.424-0.763 0.063-0.070 0.185-0.187 0.298-0.187s0.235 0.117 0.298 0.187c0.152 0.169 0.299 0.433 0.424 0.763 0.28 0.737 0.434 1.726 0.434 2.784s-0.154 2.046-0.434 2.784c-0.125 0.33-0.272 0.593-0.424 0.763-0.063 0.070-0.185 0.187-0.298 0.187z"></path>
</symbol>
<symbol id="icon-podcast" viewBox="0 0 32 32">
<path d="M32 16c0-8.837-7.163-16-16-16s-16 7.163-16 16c0 6.877 4.339 12.739 10.428 15.002l-0.428 0.998h12l-0.428-0.998c6.089-2.263 10.428-8.125 10.428-15.002zM15.212 19.838c-0.713-0.306-1.212-1.014-1.212-1.838 0-1.105 0.895-2 2-2s2 0.895 2 2c0 0.825-0.499 1.533-1.212 1.839l-0.788-1.839-0.788 1.838zM16.821 19.915c1.815-0.379 3.179-1.988 3.179-3.915 0-2.209-1.791-4-4-4s-4 1.791-4 4c0 1.928 1.364 3.535 3.18 3.913l-2.332 5.441c-2.851-1.223-4.848-4.056-4.848-7.355 0-4.418 3.582-8.375 8-8.375s8 3.957 8 8.375c0 3.299-1.997 6.131-4.848 7.355l-2.331-5.439zM21.514 30.866l-2.31-5.39c3.951-1.336 6.796-5.073 6.796-9.476 0-5.523-4.477-10-10-10s-10 4.477-10 10c0 4.402 2.845 8.14 6.796 9.476l-2.31 5.39c-4.987-2.14-8.481-7.095-8.481-12.866 0-7.729 6.266-14.37 13.995-14.37s13.995 6.641 13.995 14.37c0 5.771-3.494 10.726-8.481 12.866z"></path>
</symbol>
<symbol id="icon-location2" viewBox="0 0 32 32">
<path d="M16 0c-5.523 0-10 4.477-10 10 0 10 10 22 10 22s10-12 10-22c0-5.523-4.477-10-10-10zM16 16.125c-3.383 0-6.125-2.742-6.125-6.125s2.742-6.125 6.125-6.125 6.125 2.742 6.125 6.125-2.742 6.125-6.125 6.125zM12.125 10c0-2.14 1.735-3.875 3.875-3.875s3.875 1.735 3.875 3.875c0 2.14-1.735 3.875-3.875 3.875s-3.875-1.735-3.875-3.875z"></path>
</symbol>
<symbol id="icon-display" viewBox="0 0 32 32">
<path d="M0 2v20h32v-20h-32zM30 20h-28v-16h28v16zM21 24h-10l-1 4-2 2h16l-2-2z"></path>
</symbol>
<symbol id="icon-bubble2" viewBox="0 0 32 32">
<path d="M16 6c-1.717 0-3.375 0.271-4.928 0.804-1.46 0.502-2.76 1.211-3.863 2.108-2.069 1.681-3.209 3.843-3.209 6.088 0 1.259 0.35 2.481 1.039 3.63 0.711 1.185 1.781 2.268 3.093 3.133 0.949 0.625 1.587 1.623 1.755 2.747 0.056 0.375 0.091 0.753 0.105 1.129 0.233-0.194 0.461-0.401 0.684-0.624 0.755-0.755 1.774-1.172 2.828-1.172 0.168 0 0.336 0.011 0.505 0.032 0.655 0.083 1.325 0.126 1.99 0.126 1.717 0 3.375-0.271 4.928-0.804 1.46-0.502 2.76-1.211 3.863-2.108 2.069-1.681 3.209-3.843 3.209-6.088s-1.14-4.407-3.209-6.088c-1.104-0.897-2.404-1.606-3.863-2.108-1.553-0.534-3.211-0.804-4.928-0.804zM16 2v0c8.837 0 16 5.82 16 13s-7.163 13-16 13c-0.849 0-1.682-0.054-2.495-0.158-3.437 3.437-7.539 4.053-11.505 4.144v-0.841c2.142-1.049 4-2.961 4-5.145 0-0.305-0.024-0.604-0.068-0.897-3.619-2.383-5.932-6.024-5.932-10.103 0-7.18 7.163-13 16-13z"></path>
</symbol>
<symbol id="icon-search" viewBox="0 0 32 32">
<path d="M31.008 27.231l-7.58-6.447c-0.784-0.705-1.622-1.029-2.299-0.998 1.789-2.096 2.87-4.815 2.87-7.787 0-6.627-5.373-12-12-12s-12 5.373-12 12 5.373 12 12 12c2.972 0 5.691-1.081 7.787-2.87-0.031 0.677 0.293 1.515 0.998 2.299l6.447 7.58c1.104 1.226 2.907 1.33 4.007 0.23s0.997-2.903-0.23-4.007zM12 20c-4.418 0-8-3.582-8-8s3.582-8 8-8 8 3.582 8 8-3.582 8-8 8z"></path>
</symbol>
<symbol id="icon-wrench" viewBox="0 0 32 32">
<path d="M31.342 25.559l-14.392-12.336c0.67-1.259 1.051-2.696 1.051-4.222 0-4.971-4.029-9-9-9-0.909 0-1.787 0.135-2.614 0.386l5.2 5.2c0.778 0.778 0.778 2.051 0 2.828l-3.172 3.172c-0.778 0.778-2.051 0.778-2.828 0l-5.2-5.2c-0.251 0.827-0.386 1.705-0.386 2.614 0 4.971 4.029 9 9 9 1.526 0 2.963-0.38 4.222-1.051l12.336 14.392c0.716 0.835 1.938 0.882 2.716 0.104l3.172-3.172c0.778-0.778 0.731-2-0.104-2.716z"></path>
</symbol>
<symbol id="icon-equalizer" viewBox="0 0 32 32">
<path d="M14 4v-0.5c0-0.825-0.675-1.5-1.5-1.5h-5c-0.825 0-1.5 0.675-1.5 1.5v0.5h-6v4h6v0.5c0 0.825 0.675 1.5 1.5 1.5h5c0.825 0 1.5-0.675 1.5-1.5v-0.5h18v-4h-18zM8 8v-4h4v4h-4zM26 13.5c0-0.825-0.675-1.5-1.5-1.5h-5c-0.825 0-1.5 0.675-1.5 1.5v0.5h-18v4h18v0.5c0 0.825 0.675 1.5 1.5 1.5h5c0.825 0 1.5-0.675 1.5-1.5v-0.5h6v-4h-6v-0.5zM20 18v-4h4v4h-4zM14 23.5c0-0.825-0.675-1.5-1.5-1.5h-5c-0.825 0-1.5 0.675-1.5 1.5v0.5h-6v4h6v0.5c0 0.825 0.675 1.5 1.5 1.5h5c0.825 0 1.5-0.675 1.5-1.5v-0.5h18v-4h-18v-0.5zM8 28v-4h4v4h-4z"></path>
</symbol>
<symbol id="icon-equalizer2" viewBox="0 0 32 32">
<path d="M28 14h0.5c0.825 0 1.5-0.675 1.5-1.5v-5c0-0.825-0.675-1.5-1.5-1.5h-0.5v-6h-4v6h-0.5c-0.825 0-1.5 0.675-1.5 1.5v5c0 0.825 0.675 1.5 1.5 1.5h0.5v18h4v-18zM24 8h4v4h-4v-4zM18.5 26c0.825 0 1.5-0.675 1.5-1.5v-5c0-0.825-0.675-1.5-1.5-1.5h-0.5v-18h-4v18h-0.5c-0.825 0-1.5 0.675-1.5 1.5v5c0 0.825 0.675 1.5 1.5 1.5h0.5v6h4v-6h0.5zM14 20h4v4h-4v-4zM8.5 14c0.825 0 1.5-0.675 1.5-1.5v-5c0-0.825-0.675-1.5-1.5-1.5h-0.5v-6h-4v6h-0.5c-0.825 0-1.5 0.675-1.5 1.5v5c0 0.825 0.675 1.5 1.5 1.5h0.5v18h4v-18h0.5zM4 8h4v4h-4v-4z"></path>
</symbol>
<symbol id="icon-cog" viewBox="0 0 32 32">
<path d="M29.181 19.070c-1.679-2.908-0.669-6.634 2.255-8.328l-3.145-5.447c-0.898 0.527-1.943 0.829-3.058 0.829-3.361 0-6.085-2.742-6.085-6.125h-6.289c0.008 1.044-0.252 2.103-0.811 3.070-1.679 2.908-5.411 3.897-8.339 2.211l-3.144 5.447c0.905 0.515 1.689 1.268 2.246 2.234 1.676 2.903 0.672 6.623-2.241 8.319l3.145 5.447c0.895-0.522 1.935-0.82 3.044-0.82 3.35 0 6.067 2.725 6.084 6.092h6.289c-0.003-1.034 0.259-2.080 0.811-3.038 1.676-2.903 5.399-3.894 8.325-2.219l3.145-5.447c-0.899-0.515-1.678-1.266-2.232-2.226zM16 22.479c-3.578 0-6.479-2.901-6.479-6.479s2.901-6.479 6.479-6.479c3.578 0 6.479 2.901 6.479 6.479s-2.901 6.479-6.479 6.479z"></path>
</symbol>
<symbol id="icon-bug" viewBox="0 0 32 32">
<path d="M32 18v-2h-6.040c-0.183-2.271-0.993-4.345-2.24-6.008h5.061l2.189-8.758-1.94-0.485-1.811 7.242h-5.459c-0.028-0.022-0.056-0.043-0.084-0.064 0.21-0.609 0.324-1.263 0.324-1.944 0-3.305-2.686-5.984-6-5.984s-6 2.679-6 5.984c0 0.68 0.114 1.334 0.324 1.944-0.028 0.021-0.056 0.043-0.084 0.064h-5.459l-1.811-7.242-1.94 0.485 2.189 8.758h5.061c-1.246 1.663-2.056 3.736-2.24 6.008h-6.040v2h6.043c0.119 1.427 0.485 2.775 1.051 3.992h-3.875l-2.189 8.757 1.94 0.485 1.811-7.243h3.511c1.834 2.439 4.606 3.992 7.708 3.992s5.874-1.554 7.708-3.992h3.511l1.811 7.243 1.94-0.485-2.189-8.757h-3.875c0.567-1.217 0.932-2.565 1.051-3.992h6.043z"></path>
</symbol>
<symbol id="icon-bookmark" viewBox="0 0 32 32">
<path d="M6 0v32l10-10 10 10v-32z"></path>
</symbol>
<symbol id="icon-sort-amount-desc" viewBox="0 0 32 32">
<path d="M10 24v-24h-4v24h-5l7 7 7-7h-5z"></path>
<path d="M14 0h18v4h-18v-4z"></path>
<path d="M14 6h14v4h-14v-4z"></path>
<path d="M14 12h10v4h-10v-4z"></path>
<path d="M14 18h6v4h-6v-4z"></path>
</symbol>
</defs>
</svg>
